<?xml version="1.0" ?><!DOCTYPE svg  PUBLIC '-//W3C//DTD SVG 1.1//EN'  'http://www.w3.org/Graphics/SVG/1.1/DTD/svg11.dtd'><svg enable-background="new 0 0 512 512" height="512px" id="Layer_1" version="1.1" viewBox="0 0 512 512" width="512px" xml:space="preserve" xmlns="http://www.w3.org/2000/svg" xmlns:xlink="http://www.w3.org/1999/xlink"><g><polygon clip-rule="evenodd" fill="#4C6E94" fill-rule="evenodd" points="0,0 435.207,0 512,76.791 512,512 76.793,512 0,435.203     "/><polygon clip-rule="evenodd" fill="#6E8FB2" fill-rule="evenodd" points="435.207,0 512,76.791 435.207,76.791  "/><polygon clip-rule="evenodd" fill="#304E73" fill-rule="evenodd" points="435.207,76.791 512,153.586 512,76.791  "/><polygon clip-rule="evenodd" fill="#6E8FB2" fill-rule="evenodd" points="76.793,512 0,435.203 76.793,435.203  "/><polygon clip-rule="evenodd" fill="#304E73" fill-rule="evenodd" points="153.588,512 76.793,435.203 76.793,512  "/><path clip-rule="evenodd" d="M338.313,512h154.641H512v-29.332V374.59V215.258l-58.348-58.35   c2.871,3.629,3.625,9.375-1.211,18.9c-17.836,34.615-36.281,51.543-56.691,82.08c-0.148,0.15-0.148,0.15-0.301,0.299   c-5.59,8.465-8.16,16.934-1.355,23.734c20.25,20.254,44.137,40.512,57.285,60.918c9.977,15.273,0.613,27.367-12.996,27.367h-38.852   h-22.676c-8.012,0-14.816-3.477-21.16-8.469c-13.152-10.578-22.828-24.188-34.922-36.129c-8.313-8.316-14.965-10.129-19.953-5.891   c-1.512,1.359-2.871,3.172-4.227,5.434c-4.242,8.023-4.844,16.781-5.75,32.809c-0.453,7.707-5.746,11.184-12.852,12.246h-30.078   c-35.828,0-66.363-15.422-92.818-41.426L338.313,512z M211.783,230.828l-73.316-73.314c1.061,0.908,1.816,2.119,2.271,3.174   c15.869,36.281,34.313,68.781,51.547,88.131c3.93,4.383,10.73,6.045,15.266,0C209.668,245.949,211.029,239.143,211.783,230.828   L211.783,230.828z M208.762,170.969c-7.256-13.455-18.896-10.432-20.561-12.092l22.979,22.975   C210.422,176.561,209.668,172.631,208.762,170.969L208.762,170.969z M309.285,247.609c11.641-11.789,22.375-28.721,31.137-44.443   l-53.355-53.361c2.113,2.27,3.324,4.988,3.477,8.617c1.055,27.662-2.121,57.291,0.906,83.291   C292.352,249.424,299.609,257.436,309.285,247.609L309.285,247.609z" fill="#304E73" fill-rule="evenodd"/><path clip-rule="evenodd" d="M68.176,152.223l56.234-0.148c8.313,0,14.363,4.082,16.328,8.613   c15.869,36.281,34.313,68.781,51.547,88.131c3.93,4.383,10.73,6.045,15.266,0c7.711-10.43,5.596-69.836,1.211-77.85   c-7.863-14.512-20.861-9.824-20.861-12.547c0.453-8.768,11.943-16.479,53.965-16.631c32.807-0.148,48.076,2.875,48.678,16.631   c1.055,27.662-2.121,57.291,0.906,83.291c0.902,7.711,8.16,15.723,17.836,5.896c26.301-26.906,48.676-79.059,51.398-88.281   c1.355-4.836,5.285-7.105,9.977-7.105l69.988-0.148c8.316,0,21.766,4.383,11.793,23.734c-17.836,34.615-36.281,51.543-56.691,82.08   c-5.738,8.615-8.461,17.232-1.656,24.033c20.25,20.254,44.137,40.512,57.285,60.918c9.977,15.273,0.613,27.367-12.996,27.367   c-21.316,0-40.211,0-61.527,0c-8.012,0-14.816-3.477-21.16-8.469c-13.152-10.578-22.828-24.188-34.922-36.129   c-10.887-10.73-18.59-10.578-24.18-0.457c-4.242,8.023-4.844,16.781-5.75,32.809c-0.453,7.707-5.746,11.184-12.852,12.246   c-13.301,0-16.777,0-30.078,0c-62.281,0-108.539-46.867-145.271-113.83c-16.779-30.684-32.502-57.746-46.408-92.816   C55.025,157.361,58.953,152.223,68.176,152.223L68.176,152.223z" fill="#FFFFFF" fill-rule="evenodd"/></g></svg>